<svg viewBox="0 0 28 29" fill="none" xmlns="http://www.w3.org/2000/svg">
<path d="M27.4989 8.34421L18.922 5.54421C18.7746 5.48526 18.6273 5.48526 18.4504 5.54421L9.87358 8.34421C9.57888 8.43263 9.37256 8.72737 9.37256 9.05161V20.3105C9.37256 20.6348 9.57888 20.9 9.87358 21.0179L18.4504 23.8179C18.5389 23.8473 18.5978 23.8473 18.6862 23.8473C18.7746 23.8473 18.8336 23.8473 18.922 23.8179L27.4989 20.9884C27.7936 20.9 27.9999 20.6053 27.9999 20.2811V9.05161C27.9999 8.72737 27.7936 8.46211 27.4989 8.34421ZM17.9494 22.1084L10.8462 19.78V10.0537L13.6757 10.9673V16.479C13.6757 16.8916 13.9999 17.2158 14.4126 17.2158C14.8252 17.2158 15.1494 16.8916 15.1494 16.479V11.4684L17.9789 12.3821V22.1084H17.9494ZM18.6862 11.0853L16.682 10.4368L18.0967 9.93579C18.4799 9.78844 18.6862 9.37579 18.5389 8.99263C18.3914 8.60948 17.9789 8.43263 17.5957 8.55053L14.442 9.69998L12.4673 9.05161L18.6862 7.01789L24.9052 9.05161L18.6862 11.0853ZM26.5262 19.78L23.6967 20.6937V17.5105C23.6967 17.0979 23.3726 16.7737 22.9599 16.7737C22.5473 16.7737 22.2526 17.0979 22.2526 17.5105V21.1948L19.4231 22.1084V12.3821L26.5262 10.0537V19.78Z" fill="black"/>
<path d="M5.95368 9.84766H0.736842C0.32421 9.84766 0 10.1719 0 10.5845C0 10.9971 0.32421 11.3213 0.736842 11.3213H5.95368C6.36632 11.3213 6.69053 10.9971 6.69053 10.5845C6.66105 10.1719 6.33685 9.84766 5.95368 9.84766Z" fill="black"/>
<path d="M5.95368 13.9443H0.736842C0.32421 13.9443 0 14.2685 0 14.6812C0 15.0937 0.32421 15.418 0.736842 15.418H5.95368C6.36632 15.418 6.69053 15.0937 6.69053 14.6812C6.69053 14.2685 6.33685 13.9443 5.95368 13.9443Z" fill="black"/>
<path d="M5.95368 18.041H0.736842C0.32421 18.041 0 18.3652 0 18.7779C0 19.1904 0.32421 19.5147 0.736842 19.5147H5.95368C6.36632 19.5147 6.69053 19.1904 6.69053 18.7779C6.69053 18.3652 6.33685 18.041 5.95368 18.041Z" fill="black"/>
</svg>
