<svg viewBox="0 0 28 29" fill="none" xmlns="http://www.w3.org/2000/svg">
<mask id="mask0_78_289" style="mask-type:luminance" maskUnits="userSpaceOnUse" x="4" y="4" width="20" height="20">
<path d="M23.3635 4.625H4.11353V23.875H23.3635V4.625Z" fill="white"/>
</mask>
<g mask="url(#mask0_78_289)">
<path d="M16.0939 4.625C15.6048 4.62527 15.1231 4.74495 14.6909 4.97389C14.2587 5.20282 13.8889 5.53397 13.6138 5.93843C13.3573 5.65969 13.0457 5.43749 12.6988 5.28545C12.3518 5.13341 11.9773 5.05482 11.5985 5.05517C11.0999 5.05579 10.6105 5.19065 10.1819 5.44551C9.75343 5.70037 9.40151 6.06598 9.16298 6.50378C8.92437 6.94158 8.80782 7.4356 8.82593 7.93387C8.84405 8.43213 8.99603 8.91616 9.2658 9.33546H4.75905C4.59136 9.34044 4.43168 9.40869 4.31202 9.52621C4.19235 9.64381 4.12144 9.80209 4.11353 9.96966V13.8198C4.11918 13.9892 4.18886 14.1501 4.3087 14.2699C4.42854 14.3897 4.58967 14.4595 4.75905 14.4651H5.39296V23.2295C5.3986 23.3989 5.46857 23.56 5.58841 23.6799C5.70825 23.7996 5.86909 23.8694 6.03847 23.875H21.4383C21.6077 23.8694 21.7691 23.7996 21.8889 23.6799C22.0088 23.56 22.0784 23.3989 22.0841 23.2295V14.4651H22.7183C22.8877 14.4595 23.0485 14.3897 23.1683 14.2699C23.2882 14.1501 23.3578 13.9892 23.3635 13.8198V9.96966C23.3556 9.80209 23.2847 9.64381 23.165 9.52621C23.0454 9.40869 22.886 9.34044 22.7183 9.33546H18.5397C18.8542 8.88748 19.0399 8.36199 19.0763 7.81583C19.1127 7.26966 18.9984 6.72391 18.7462 6.23811C18.494 5.75231 18.1134 5.34512 17.6457 5.06069C17.178 4.77627 16.6413 4.62549 16.0939 4.625ZM16.0939 5.90442C16.5489 5.90442 16.9853 6.0853 17.307 6.40702C17.6287 6.72874 17.8093 7.16512 17.8093 7.6201C17.8093 8.07508 17.6287 8.51145 17.307 8.83317C16.9853 9.15486 16.5489 9.33546 16.0939 9.33546H14.384V7.61429C14.3825 7.38933 14.4256 7.16639 14.5109 6.95827C14.5963 6.75014 14.7223 6.56112 14.8814 6.40205C15.0404 6.24297 15.2294 6.11699 15.4376 6.0316C15.6458 5.9462 15.869 5.90292 16.0939 5.90442ZM11.5985 6.33486C11.7952 6.33366 11.99 6.37159 12.1718 6.44628C12.3538 6.52097 12.5189 6.63096 12.6579 6.77C12.7969 6.90904 12.9072 7.07412 12.9818 7.25601C13.0566 7.4379 13.0942 7.63302 13.093 7.82965V9.33546H11.5985C11.2006 9.33546 10.8188 9.17761 10.5374 8.89621C10.2561 8.61483 10.0979 8.2331 10.0979 7.83518C10.0979 7.43726 10.2561 7.0558 10.5374 6.77443C10.8188 6.49305 11.2006 6.33486 11.5985 6.33486ZM5.39296 10.6152H13.093V13.1856H5.39296V10.6152ZM14.384 10.6152H22.0841V13.1856H14.384V10.6152ZM6.684 14.4651H13.093V22.5956H6.684V14.4651ZM14.384 14.4651H20.793V22.5956H14.384V14.4651Z" fill="black"/>
</g>
</svg>
